<svg viewBox="0 0 147 526" xmlns="http://www.w3.org/2000/svg">
  <g id="Page-1" fill="none" fill-rule="evenodd">
    <g id="about-page" transform="translate(-533 -35)" fill="#9E8B81">
      <g id="bg">
        <g id="Group" transform="translate(36 35)">
          <path d="M353.945 309.07s-3.99-5.13-3.99-21.66c0-10.26.76-15.39.76-15.39-10.45 2.09-14.82 13.11-14.82 25.46 0 8.74 2.66 14.25 8.55 14.25 3.23 0 5.7-1.33 9.5-2.66zm38.19-47.88c0 18.05-1.9 26.79-1.9 40.09 0 9.88 3.23 12.35 7.22 12.35 1.9 0 4.18-1.33 5.51-3.04l.76.57c-3.61 6.27-13.11 10.07-24.51 10.07-10.07 0-19.57-2.66-24.7-10.64-8.55 2.28-18.81 11.21-35.34 11.21-13.68 0-25.65-6.08-25.65-20.52 0-19.38 20.33-30.97 57.19-30.97 0 0 1.14-12.92 1.14-27.36 0-13.11-2.85-18.43-9.88-18.43-7.03 0-10.64 6.27-10.64 14.06 0 7.03 1.9 11.78 5.51 17.1-5.13 3.99-14.06 6.65-20.14 6.65-10.26 0-16.91-5.89-16.91-14.44 0-15.96 25.84-24.89 49.02-24.89 32.68 0 43.32 12.16 43.32 38.19zm97.09-38.19c21.09 0 35.15 19 35.15 42.94 0 32.11-22.99 55.86-59.66 55.86-12.54 0-23.75-3.61-32.87-9.31l-20.71 6.84-.76-1.33c4.94-4.75 5.51-12.54 5.51-21.47V196.4c0-7.41-3.23-9.69-10.07-9.69l-.76-1.71c28.88 0 53.01-9.5 53.01-9.5v62.32c9.12-4.75 16.53-14.82 31.16-14.82zm-21.28 11.97c-3.42 0-5.32 2.28-9.88 4.37v61.37c0 13.11 3.8 19.57 9.5 19.57 7.22 0 11.97-11.97 11.97-46.36 0-31.35-6.46-38.95-11.59-38.95zm121.22 85.31c6.46 0 10.45-11.97 10.45-46.36 0-30.4-5.89-49.4-13.3-49.4-6.46 0-10.64 12.16-10.64 46.36 0 30.59 6.08 49.4 13.49 49.4zm1.52-97.28c29.26 0 53.39 18.24 53.39 47.12 0 26.22-21.28 51.68-59.28 51.68-29.26 0-53.58-18.24-53.58-47.12 0-26.22 21.66-51.68 59.47-51.68zm123.12 5.51v-1.71l47.88-1.71 1.52 1.52v74.48c0 7.41 3.04 9.88 9.88 9.88l.95 1.52c-28.88 0-51.3 9.31-51.3 9.31l-1.71-14.82c-12.54 4.18-21.28 14.82-36.29 14.82-15.01 0-23.94-9.31-23.94-26.6v-56.43c0-8.74-2.85-10.26-10.26-10.26v-1.71l50.92-1.71 1.52 1.52v73.34c0 5.51 3.23 8.55 7.03 8.55 3.8 0 5.89-1.52 11.02-3.04v-69.73c0-5.7-3.23-7.22-7.22-7.22zm133.38 78.09l.76.76c-6.46 9.12-19 14.44-32.49 14.44-16.15 0-27.55-6.08-27.55-26.6v-66.69h-7.22v-1.71c18.62 0 37.81-12.35 47.69-26.6l1.52.57v26.03h11.59v1.71h-11.59v72.77c0 6.08 3.61 8.74 7.6 8.74 3.04 0 6.84-1.14 9.69-3.42z" id="about" transform="rotate(90 570.735 248.65)"/>
        </g>
      </g>
    </g>
  </g>
</svg>