<svg viewBox="0 0 16 11" xmlns="http://www.w3.org/2000/svg">
  <g id="Page-1" fill="none" fill-rule="evenodd">
    <g id="work-page-2" transform="translate(-1338 -696)" fill="#DBA698">
      <path d="M1341.029 696.72h.415c.529 1.148 1.168 2.086 1.916 2.814a7.529 7.529 0 0 0 2.674 1.667h3.113c-.033-1.506-.391-3-1.075-4.48h.428c.57 1.253 1.275 2.258 2.118 3.015.842.757 1.861 1.31 3.057 1.66-1.196.358-2.215.913-3.057 1.666-.843.753-1.549 1.756-2.118 3.01h-.428c.684-1.474 1.042-2.963 1.075-4.468h-3.15a7.488 7.488 0 0 0-2.655 1.666c-.745.728-1.377 1.662-1.898 2.801h-.415c.586-1.261 1.235-2.262 1.947-3.003a6.831 6.831 0 0 1 2.57-1.672 6.867 6.867 0 0 1-2.57-1.666c-.712-.737-1.361-1.74-1.947-3.01zm-2.258 0h.427c.57 1.254 1.275 2.259 2.118 3.016.842.757 1.861 1.31 3.058 1.66-1.197.358-2.216.913-3.058 1.666-.843.753-1.549 1.756-2.118 3.01h-.427c.586-1.262 1.237-2.261 1.953-2.998a7.053 7.053 0 0 1 2.575-1.678 6.887 6.887 0 0 1-2.575-1.672c-.716-.74-1.367-1.742-1.953-3.003z" id="→"/>
    </g>
  </g>
</svg>