<svg width="22" height="21" xmlns="http://www.w3.org/2000/svg"><path d="M14.647 14.909c-.843 0-2.092-.349-2.092-1.831 0-.465.058-.93.232-1.482h-.145c-.552 2.18-1.54 3.313-3.517 3.313-1.86 0-2.877-1.511-2.877-3.488 0-3.429 2.325-6.103 6.22-6.103 1.278 0 2.15.494 3.4.494 1.075 0 1.715-.494 1.715-.494l-1.163 7.905c-.029.233-.029.407-.029.494 0 .29.145.436.349.436 1.191 0 3.458-3.051 3.458-6.858 0-3.459-2.15-7.004-6.859-7.004-6.103 0-8.834 6.539-8.834 11.043 0 4.476 2.063 8.66 7.469 8.66 2.906 0 5.667-1.685 6.48-2.557l.146.117c-1.424 1.598-4.447 3.167-7.876 3.167C3.982 20.721 0 17.118 0 11.363 0 6.568 3.517 0 13.456 0 18.716 0 22 3.458 22 7.178c0 3.924-3.284 7.73-7.353 7.73zm-3.429-1.54c.9 0 1.83-3.662 1.83-6.133 0-1.22-.203-1.685-.638-1.685-1.221 0-1.831 3.894-1.831 6.016 0 1.51.32 1.802.639 1.802z" fill="#DBA698" fill-rule="evenodd"/></svg>