<svg viewBox="0 0 724 122" xmlns="http://www.w3.org/2000/svg">
    <path d="M61.87 24.52c-8.74 0-16.72 16.34-16.72 45.98 0 22.8 9.12 40.66 27.93 40.66 10.45 0 18.62-3.04 26.22-8.17l.76.76C89.8 115.91 76.12 121.8 56.17 121.8 20.64 121.8.69 102.99.69 74.68.69 46.56 25.96 23 60.54 23c25.46 0 41.8 9.31 41.8 23.56 0 8.55-7.03 15.77-19.76 15.77-5.89 0-12.73-2.09-16.72-5.7 3.42-5.13 5.13-11.02 5.13-18.05 0-7.79-2.66-14.06-9.12-14.06zm105.26 95.76c6.46 0 10.45-11.97 10.45-46.36 0-30.4-5.89-49.4-13.3-49.4-6.46 0-10.64 12.16-10.64 46.36 0 30.59 6.08 49.4 13.49 49.4zM168.65 23c29.26 0 53.39 18.24 53.39 47.12 0 26.22-21.28 51.68-59.28 51.68-29.26 0-53.58-18.24-53.58-47.12 0-26.22 21.66-51.68 59.47-51.68zm120.65 93.29V118s-9.12-.57-28.31-.57c-19 0-32.11.57-32.11.57v-1.71c7.41 0 10.83-5.13 10.83-13.3V43.9c0-7.41-3.23-10.07-10.07-10.07l-.76-1.52c28.88 0 53.01-9.31 53.01-9.31v14.82C293.1 33.64 303.17 23 317.99 23c15.2 0 23.94 9.31 23.94 26.79v56.43c0 8.55 3.04 10.07 10.45 10.07V118s-12.54-.57-31.35-.57c-17.67 0-28.31.57-28.31.57v-1.71c5.13 0 7.03-2.47 7.03-8.93V44.85c0-5.51-3.04-8.36-6.84-8.36-3.61 0-6.08 1.33-11.02 2.85v69.73c0 5.7 3.23 7.22 7.41 7.22zm136.61-9.69l.76.76c-6.46 9.12-19 14.44-32.49 14.44-16.15 0-27.55-6.08-27.55-26.6V28.51h-7.22V26.8c18.62 0 37.81-12.35 47.69-26.6l1.52.57V26.8h11.59v1.71h-11.59v72.77c0 6.08 3.61 8.74 7.6 8.74 3.04 0 6.84-1.14 9.69-3.42zm67.45 2.47s-3.99-5.13-3.99-21.66c0-10.26.76-15.39.76-15.39-10.45 2.09-14.82 13.11-14.82 25.46 0 8.74 2.66 14.25 8.55 14.25 3.23 0 5.7-1.33 9.5-2.66zm38.19-47.88c0 18.05-1.9 26.79-1.9 40.09 0 9.88 3.23 12.35 7.22 12.35 1.9 0 4.18-1.33 5.51-3.04l.76.57c-3.61 6.27-13.11 10.07-24.51 10.07-10.07 0-19.57-2.66-24.7-10.64-8.55 2.28-18.81 11.21-35.34 11.21-13.68 0-25.65-6.08-25.65-20.52 0-19.38 20.33-30.97 57.19-30.97 0 0 1.14-12.92 1.14-27.36 0-13.11-2.85-18.43-9.88-18.43-7.03 0-10.64 6.27-10.64 14.06 0 7.03 1.9 11.78 5.51 17.1-5.13 3.99-14.06 6.65-20.14 6.65-10.26 0-16.91-5.89-16.91-14.44 0-15.96 25.84-24.89 49.02-24.89 32.68 0 43.32 12.16 43.32 38.19zm76.95-36.67c-8.74 0-16.72 16.34-16.72 45.98 0 22.8 9.12 40.66 27.93 40.66 10.45 0 18.62-3.04 26.22-8.17l.76.76c-10.26 12.16-23.94 18.05-43.89 18.05-35.53 0-55.48-18.81-55.48-47.12 0-28.12 25.27-51.68 59.85-51.68 25.46 0 41.8 9.31 41.8 23.56 0 8.55-7.03 15.77-19.76 15.77-5.89 0-12.73-2.09-16.72-5.7 3.42-5.13 5.13-11.02 5.13-18.05 0-7.79-2.66-14.06-9.12-14.06zm114.57 82.08l.76.76c-6.46 9.12-19 14.44-32.49 14.44-16.15 0-27.55-6.08-27.55-26.6V28.51h-7.22V26.8c18.62 0 37.81-12.35 47.69-26.6l1.52.57V26.8h11.59v1.71h-11.59v72.77c0 6.08 3.61 8.74 7.6 8.74 3.04 0 6.84-1.14 9.69-3.42z" fill="#9E8B81" fill-rule="evenodd" />
</svg>