<svg viewBox="0 0 954 171" xmlns="http://www.w3.org/2000/svg" xmlns:xlink="http://www.w3.org/1999/xlink">
  <defs>
    <path d="M.87 168.74c3.418-5.396 7.735-8.274 12.053-14.75 4.857-7.196 5.397-17.81 5.397-26.445V21.587c0-12.772-4.318-16.01-13.492-16.01v-1.8s15.83.54 34.54.54c18.708 0 34.539-.54 34.539-.54v1.8c-9.175 0-13.492 8.455-13.492 22.486v87.789c0 16.37-4.317 25.545-12.773 32.74C34.15 160.107 14.182 157.588 1.95 170l-1.08-1.26zm93.545-35.618c-12.773 0-19.249-8.096-19.249-18.89 0-10.613 6.476-19.068 19.249-19.068 12.772 0 19.429 8.455 19.429 19.069 0 10.793-6.657 18.889-19.429 18.889zM223.939 9.354L254.88 0l39.037 115.492c3.058 8.995 8.275 12.413 14.211 12.413v1.799s-9.894-.54-34.72-.54c-24.105 0-33.64.54-33.64.54v-1.8c7.556 0 9.895-3.777 9.895-8.814 0-3.778-1.44-8.275-3.059-14.032l-7.915-26.804H202.35l-8.095 25.005c-1.799 5.757-2.698 10.254-2.698 12.953 0 9.174 5.577 11.693 16.19 11.693v1.799s-9.714-.54-21.767-.54c-9.174 0-16.55.54-16.55.54v-1.8c9.714 0 17.27-9.534 22.487-25.005l32.02-93.545zM203.07 76.095h35.08l-16.37-54.688-18.71 54.688zm237.28 19.249c0 25.545-23.925 34.36-50.19 34.36-11.873 0-31.841-.54-42.275-.54-18.71 0-34.54.54-34.54.54v-1.8c9.175 0 13.492-8.454 13.492-22.486v-83.83c0-12.773-4.317-16.011-13.492-16.011v-1.8s15.83.54 34.54.54c9.174 0 26.984-.54 38.137-.54 23.027 0 48.212 7.017 48.212 29.144 0 17.99-17.45 28.243-40.836 28.963v.72c28.783.899 46.952 15.47 46.952 32.74zm-45.513.72c0-12.953-6.296-32.921-25.905-32.921v48.751c0 12.773 3.958 16.01 10.614 16.01 10.434 0 15.291-13.671 15.291-31.84zM368.933 6.655v54.688c14.572 0 22.127-8.995 22.127-28.423 0-16.37-6.116-26.984-17.63-26.984-1.438 0-3.057.18-4.497.72zm187.09-2.878v38.497h-1.799C551.526 18.71 535.156 5.937 513.39 5.937c-4.138 0-8.276.72-9.535 1.079v54.868h9.355c12.232 0 22.846-8.096 22.846-25.186h1.8v57.567h-1.8c0-14.572-7.915-30.223-26.084-30.223h-6.117v47.852c0 12.773 4.318 16.01 13.492 16.01 18.89 0 38.677-17.629 44.074-47.491h1.98l-8.276 49.29c-32.56-.18-55.587-.539-72.317-.539-18.71 0-34.54.54-34.54.54v-1.8c9.174 0 13.492-8.454 13.492-22.486v-83.83c0-12.773-4.318-16.011-13.492-16.011v-1.8s15.83.54 34.54.54c16.01 0 42.634-.36 73.216-.54zm113.514 124.127v1.799s-15.831-.54-34.54-.54-34.54.54-34.54.54v-1.8c9.175 0 13.492-8.454 13.492-22.486V63.683L583.547 15.11c-5.217-8.275-9.534-9.534-14.031-9.534v-1.8s14.75.54 35.978.54c23.746 0 35.44-.54 35.44-.54v1.8c-5.757 0-9.535 3.418-9.535 7.915 0 3.958 1.979 7.915 4.318 12.053l18.529 33.82 12.592-22.487c4.498-8.095 7.736-14.93 7.736-20.508 0-6.296-3.418-10.793-15.831-10.793v-1.8s8.275.54 22.847.54c10.613 0 17.45-.54 17.45-.54v1.8c-6.837 0-16.011 6.476-25.546 23.386l-17.45 30.762v52.17c0 12.772 4.318 16.01 13.493 16.01zM709.293 3.778s24.826.54 58.466.54c25.545 0 66.38-.54 66.38-.54l-3.237 39.756-1.98-.54c0-22.306-11.872-37.237-37.777-37.237v106.137c0 12.773 4.318 16.01 13.492 16.01v1.8s-15.83-.54-34.54-.54c-18.708 0-34.54.54-34.54.54v-1.8c9.175 0 13.493-8.454 13.493-22.486V5.757c-22.307 0-36.159 14.211-41.016 37.777l-1.979-.54 3.238-39.216zM869.4 9.354L900.341 0l39.037 115.492c3.058 8.995 8.275 12.413 14.212 12.413v1.799s-9.895-.54-34.72-.54c-24.106 0-33.64.54-33.64.54v-1.8c7.555 0 9.894-3.777 9.894-8.814 0-3.778-1.44-8.275-3.058-14.032l-7.916-26.804h-36.338l-8.095 25.005c-1.8 5.757-2.699 10.254-2.699 12.953 0 9.174 5.577 11.693 16.19 11.693v1.799s-9.714-.54-21.767-.54c-9.174 0-16.55.54-16.55.54v-1.8c9.714 0 17.27-9.534 22.487-25.005l32.021-93.545zm-20.868 66.741h35.08l-16.37-54.688-18.71 54.688z" id="path-1"/>
    <linearGradient x1="0%" y1="50%" x2="99.392%" y2="50%" id="linearGradient-3">
      <stop stop-color="#DBA698" offset="0%"/>
      <stop stop-color="#D9B2C1" offset="100%"/>
    </linearGradient>
    <linearGradient x1="50%" y1="0%" x2="50%" y2="100%" id="linearGradient-4">
      <stop stop-color="#DBA698" offset="0%"/>
      <stop stop-color="#DBA698" stop-opacity=".5" offset="100%"/>
    </linearGradient>
    <path id="path-5" d="M-19-35h986v207H-19z"/>
  </defs>
  <g id="Page-1" fill="none" fill-rule="evenodd">
    <g id="home" transform="translate(-243 -427)">
      <g id="Group-2" transform="translate(243 427)">
        <path d="M177.8 163.56c-3.136 0-5.18-2.772-5.18-6.3 0-4.76 3.36-8.26 8.764-8.26.336 0 .672.056 1.008.084v-4.116c0-1.008-.532-1.316-1.512-1.316l-.112-.252c4.284 0 7.812-1.4 7.812-1.4v18.508c0 1.092.476 1.456 1.484 1.456l.14.224c-4.284 0-7.588 1.372-7.588 1.372l-.224-2.184c-1.344.728-2.436 2.184-4.592 2.184zm3.108-1.736c.504 0 .784-.364 1.484-.672v-6.216c0-4.2-.7-5.712-1.652-5.712s-1.568 1.792-1.568 6.832c0 4.648 1.008 5.768 1.736 5.768zM222.496 156c0 3.36 1.176 5.992 4.004 5.992 1.484 0 2.716-.448 3.808-1.204l.14.112c-1.512 1.792-3.556 2.66-6.496 2.66-5.236 0-8.008-2.772-8.008-6.944 0-4.144 3.752-7.616 8.652-7.616 3.808 0 6.552 1.764 6.748 5.432l-.364.364h-8.456c-.028.42-.028.84-.028 1.204zm.056-1.428l3.136-.336c.084-.56.112-1.092.112-1.596 0-2.156-.616-3.416-1.456-3.416-.924 0-1.484 1.736-1.792 5.348zm46.88-4.928l-.168 4.256h-.252c-.42-2.184-2.044-4.676-4.592-4.676-.784 0-1.4.392-1.4 1.288 0 3.108 7.504 3.444 7.504 8.232 0 2.94-2.408 4.816-6.888 4.816-1.96 0-2.212-.616-5.628-.616l-.252-5.012h.224c.616 2.744 2.828 5.348 5.32 5.348 1.12 0 1.736-.56 1.736-1.428 0-3.22-7.336-3.724-7.336-8.344 0-2.884 2.604-4.508 6.496-4.508 1.96 0 3.052.644 5.236.644zm36.128 13.104V163s-1.344-.084-4.172-.084c-2.8 0-4.732.084-4.732.084v-.252c1.092 0 1.596-.756 1.596-1.96v-8.708c0-1.092-.476-1.484-1.484-1.484l-.112-.224c4.256 0 7.812-1.372 7.812-1.372v12.684c0 .84.476 1.064 1.092 1.064zm-4.256-14.672c-2.156 0-3.192-1.148-3.192-2.688 0-1.568 1.036-2.772 3.192-2.772s3.22 1.204 3.22 2.772c0 1.54-1.064 2.688-3.22 2.688zm37.976.924c1.204 0 2.352.224 3.304.616.476.084 1.316.112 1.736.112 1.792 0 2.66-.504 3.332-1.148 1.148.224 1.652 1.036 1.652 1.764 0 1.092-.728 1.708-1.764 1.708-1.54 0-1.96-1.428-3.92-2.044l-.056.084c1.428.84 2.38 1.96 2.38 3.724 0 2.66-2.688 5.208-7.392 5.208-1.68 0-2.352.364-2.352.812 0 .448.364.56 2.044.56h2.128c4.732 0 7.364 1.596 7.364 4.34 0 4.172-5.208 5.824-9.492 5.824-4.312 0-6.944-1.092-6.944-3.22 0-1.484 1.26-2.184 2.24-2.184.896 0 1.428.252 1.764.588-.616.448-.756 1.12-.756 1.596 0 2.044 1.988 2.94 4.732 2.94s4.144-1.288 4.144-2.856c0-1.4-1.4-2.24-3.528-2.24h-1.652c-2.884 0-5.992-.812-5.992-3.052 0-2.016 1.988-2.996 4.956-3.192-2.996-.364-5.292-2.128-5.292-4.676 0-2.66 2.688-5.264 7.364-5.264zm-.224 9.828c.672 0 .952-1.176.952-4.676 0-3.052-.504-4.928-1.232-4.928-.644 0-.952 1.148-.952 4.648 0 3.108.476 4.956 1.232 4.956zm44.052 3.92V163s-1.344-.084-4.172-.084c-2.8 0-4.732.084-4.732.084v-.252c1.092 0 1.596-.756 1.596-1.96v-8.708c0-1.092-.476-1.484-1.484-1.484l-.112-.224c4.256 0 7.812-1.372 7.812-1.372v2.184c1.652-.616 3.136-2.184 5.32-2.184 2.24 0 3.528 1.372 3.528 3.948v8.316c0 1.26.448 1.484 1.54 1.484V163s-1.848-.084-4.62-.084c-2.604 0-4.172.084-4.172.084v-.252c.756 0 1.036-.364 1.036-1.316v-9.212c0-.812-.448-1.232-1.008-1.232-.532 0-.896.196-1.624.42v10.276c0 .84.476 1.064 1.092 1.064zM424.22 156c0 3.36 1.176 5.992 4.004 5.992 1.484 0 2.716-.448 3.808-1.204l.14.112c-1.512 1.792-3.556 2.66-6.496 2.66-5.236 0-8.008-2.772-8.008-6.944 0-4.144 3.752-7.616 8.652-7.616 3.808 0 6.552 1.764 6.748 5.432l-.364.364h-8.456c-.028.42-.028.84-.028 1.204zm.056-1.428l3.136-.336c.084-.56.112-1.092.112-1.596 0-2.156-.616-3.416-1.456-3.416-.924 0-1.484 1.736-1.792 5.348zm43.884-3.052c-.532 0-.924.196-1.372.28v9.772c0 .896.532 1.176 1.484 1.176V163s-1.736-.084-4.564-.084c-2.8 0-4.732.084-4.732.084v-.252c1.092 0 1.596-.756 1.596-1.96v-8.708c0-1.092-.476-1.484-1.484-1.484l-.112-.224c4.256 0 7.812-1.372 7.812-1.372v2.548c1.344-.476 2.044-2.548 4.228-2.548 1.596 0 2.66 1.204 2.66 2.688 0 1.512-.98 2.968-2.856 2.968-.644 0-1.456-.252-1.82-.56.14-.28.336-.784.336-1.288 0-.728-.364-1.288-1.176-1.288zm74.748-3.752c.56-.644.896-1.596.896-2.492 0-1.484-.588-2.156-1.596-2.156-1.232 0-2.072 1.008-2.072 2.576 0 1.456.616 2.436 1.848 4.004l5.04 6.356c.56-.84 1.12-2.016 1.12-2.968 0-1.008-.644-1.82-2.52-1.82v-.252s2.492.112 3.892.112c1.68 0 3.444-.112 3.444-.112v.252c-3.416 0-4.228 2.856-5.768 5.012l2.016 2.66c.812 1.036 2.044 2.352 3.276 2.352.28 0 .532-.084.812-.224l.112.168s-1.932 2.296-5.124 2.296c-2.688 0-3.78-.756-5.32-2.604-2.016 1.764-3.948 2.604-6.216 2.604-3.164 0-4.76-1.848-4.76-4.088 0-3.136 2.856-4.872 5.796-5.292-1.708-2.044-2.828-3.724-2.828-5.712 0-3.64 4.032-5.572 7.532-5.572 3.64 0 5.32 1.456 5.32 3.164 0 1.624-1.316 2.408-2.716 2.408-.728 0-1.652-.252-2.184-.672zm-1.876 13.748c.616 0 1.372-.448 1.764-.812l-4.844-6.356c-.364.56-.532 1.344-.532 2.184 0 2.296 1.316 4.984 3.612 4.984zm74.972 2.044c-3.136 0-5.18-2.772-5.18-6.3 0-4.76 3.36-8.26 8.764-8.26.336 0 .672.056 1.008.084v-4.116c0-1.008-.532-1.316-1.512-1.316l-.112-.252c4.284 0 7.812-1.4 7.812-1.4v18.508c0 1.092.476 1.456 1.484 1.456l.14.224c-4.284 0-7.588 1.372-7.588 1.372l-.224-2.184c-1.344.728-2.436 2.184-4.592 2.184zm3.108-1.736c.504 0 .784-.364 1.484-.672v-6.216c0-4.2-.7-5.712-1.652-5.712s-1.568 1.792-1.568 6.832c0 4.648 1.008 5.768 1.736 5.768zM660.7 156c0 3.36 1.176 5.992 4.004 5.992 1.484 0 2.716-.448 3.808-1.204l.14.112c-1.512 1.792-3.556 2.66-6.496 2.66-5.236 0-8.008-2.772-8.008-6.944 0-4.144 3.752-7.616 8.652-7.616 3.808 0 6.552 1.764 6.748 5.432l-.364.364h-8.456c-.028.42-.028.84-.028 1.204zm.056-1.428l3.136-.336c.084-.56.112-1.092.112-1.596 0-2.156-.616-3.416-1.456-3.416-.924 0-1.484 1.736-1.792 5.348zm43.324-5.012v.252c-.784 0-1.092.476-1.092 1.036 0 .42.112.784.336 1.4l2.8 7.7 1.82-5.292c.364-1.008.588-2.044.588-2.744 0-1.232-.616-2.1-2.212-2.1v-.252s1.26.112 2.968.112c1.568 0 2.604-.112 2.604-.112v.252c-1.428 0-2.52 1.68-3.248 3.752L705.312 163h-4.368l-4.732-11.816c-.336-.868-.672-1.372-1.792-1.372v-.252s2.548.112 5.404.112 4.256-.112 4.256-.112zm38.508 6.44c0 3.36 1.176 5.992 4.004 5.992 1.484 0 2.716-.448 3.808-1.204l.14.112c-1.512 1.792-3.556 2.66-6.496 2.66-5.236 0-8.008-2.772-8.008-6.944 0-4.144 3.752-7.616 8.652-7.616 3.808 0 6.552 1.764 6.748 5.432l-.364.364h-8.456c-.028.42-.028.84-.028 1.204zm.056-1.428l3.136-.336c.084-.56.112-1.092.112-1.596 0-2.156-.616-3.416-1.456-3.416-.924 0-1.484 1.736-1.792 5.348zm43.324 8.176V163s-1.344-.084-4.172-.084c-2.8 0-4.732.084-4.732.084v-.252c1.092 0 1.596-.756 1.596-1.96V145.08c0-1.092-.476-1.428-1.484-1.428l-.112-.252c4.256 0 7.812-1.4 7.812-1.4v19.684c0 .84.476 1.064 1.092 1.064zm34.252.588c.952 0 1.54-1.764 1.54-6.832 0-4.48-.868-7.28-1.96-7.28-.952 0-1.568 1.792-1.568 6.832 0 4.508.896 7.28 1.988 7.28zm.224-14.336c4.312 0 7.868 2.688 7.868 6.944 0 3.864-3.136 7.616-8.736 7.616-4.312 0-7.896-2.688-7.896-6.944 0-3.864 3.192-7.616 8.764-7.616zm43.044 1.764c-.532 0-.784.336-1.484.644v9.044c0 1.932.588 2.884 1.428 2.884 1.008 0 1.764-1.764 1.764-6.832 0-4.62-.98-5.74-1.708-5.74zM863.6 170h-9.408v-.252c1.12 0 1.624-.756 1.624-1.988v-15.68c0-1.092-.476-1.484-1.512-1.484l-.112-.224c4.256 0 7.588-1.372 7.588-1.372l.224 2.184c1.344-.7 2.408-2.184 4.592-2.184 3.108 0 5.152 2.8 5.152 6.328 0 5.264-3.192 8.232-8.764 8.232-.308 0-.672-.028-.98-.056v4.256c0 1.232.504 1.988 1.596 1.988V170zm40.608-14c0 3.36 1.176 5.992 4.004 5.992 1.484 0 2.716-.448 3.808-1.204l.14.112c-1.512 1.792-3.556 2.66-6.496 2.66-5.236 0-8.008-2.772-8.008-6.944 0-4.144 3.752-7.616 8.652-7.616 3.808 0 6.552 1.764 6.748 5.432l-.364.364h-8.456c-.028.42-.028.84-.028 1.204zm.056-1.428l3.136-.336c.084-.56.112-1.092.112-1.596 0-2.156-.616-3.416-1.456-3.416-.924 0-1.484 1.736-1.792 5.348zm43.884-3.052c-.532 0-.924.196-1.372.28v9.772c0 .896.532 1.176 1.484 1.176V163s-1.736-.084-4.564-.084c-2.8 0-4.732.084-4.732.084v-.252c1.092 0 1.596-.756 1.596-1.96v-8.708c0-1.092-.476-1.484-1.484-1.484l-.112-.224c4.256 0 7.812-1.372 7.812-1.372v2.548c1.344-.476 2.044-2.548 4.228-2.548 1.596 0 2.66 1.204 2.66 2.688 0 1.512-.98 2.968-2.856 2.968-.644 0-1.456-.252-1.82-.56.14-.28.336-.784.336-1.288 0-.728-.364-1.288-1.176-1.288z" id="designer-&amp;-developer" fill="#FFF"/>
        <mask id="mask-2" fill="#fff">
          <use xlink:href="#path-1"/>
        </mask>
        <use id="J.-ABEYTA-Copy" fill="#FFF" xlink:href="#path-1"/>
        <g id="Rectangle-4" mask="url(#mask-2)">
          <use fill="url(#linearGradient-3)" xlink:href="#path-5"/>
          <path stroke="url(#linearGradient-4)" d="M-18.5-34.5v206h985v-206h-985z"/>
        </g>
      </g>
    </g>
  </g>
</svg>