<svg width="24" height="20" xmlns="http://www.w3.org/2000/svg"><path d="M23.953 2.382c-.885.399-1.83.67-2.825.794A5.063 5.063 0 0 0 23.291.384a10.01 10.01 0 0 1-3.127 1.214A4.844 4.844 0 0 0 16.574 0c-2.718 0-4.92 2.259-4.92 5.041 0 .4.045.785.127 1.153C7.69 5.996 4.066 3.982 1.64.938a5.04 5.04 0 0 0-.666 2.538 5.08 5.08 0 0 0 2.188 4.2 4.812 4.812 0 0 1-2.228-.632v.062c0 2.445 1.693 4.485 3.946 4.95a4.88 4.88 0 0 1-2.212.086c.63 2.003 2.445 3.463 4.604 3.504A9.714 9.714 0 0 1 0 17.736 13.745 13.745 0 0 0 7.557 20c9.053 0 13.998-7.685 13.998-14.34 0-.214 0-.43-.015-.645.961-.707 1.8-1.6 2.46-2.613l-.047-.02z" fill="#DBA698" fill-rule="nonzero"/></svg>