<svg viewBox="0 0 533 147" xmlns="http://www.w3.org/2000/svg">
  <g id="Page-1" fill="none" fill-rule="evenodd">
    <g id="work-page" transform="translate(-58 -433)" fill="#DBA698">
      <path d="M189.05 484.8c0 .008-.568 6.846 2.28 16.91l13.49 53.58 10.45-35.91c1.52-5.51 3.23-12.35 3.23-18.43 0-7.6-3.23-13.87-14.63-14.44v-1.71s8.36.76 20.33.76c10.26 0 17.29-.76 17.29-.76v1.71c-9.88 0-17.29 9.5-21.28 23.37L200.64 576h-30.97l-20.14-62.89L127.3 576H98.8l-28.12-80.18c-2.28-6.46-4.56-9.31-12.16-9.31v-1.71s16.34.76 35.72.76 28.88-.76 28.88-.76v1.71c-5.32 0-7.03 2.85-7.03 6.65 0 3.04.38 5.51 1.52 9.88l14.82 52.25 15.96-45.41-3.04-8.93c-2.85-8.93-7.41-14.44-14.63-14.44v-1.71s11.21.76 26.22.76c12.917 0 32.1-.76 32.11-.76zm0 0zm105.64 93.48c6.46 0 10.45-11.97 10.45-46.36 0-30.4-5.89-49.4-13.3-49.4-6.46 0-10.64 12.16-10.64 46.36 0 30.59 6.08 49.4 13.49 49.4zm1.52-97.28c29.26 0 53.39 18.24 53.39 47.12 0 26.22-21.28 51.68-59.28 51.68-29.26 0-53.58-18.24-53.58-47.12 0-26.22 21.66-51.68 59.47-51.68zm122.55 17.1c-3.61 0-6.27 1.33-9.31 1.9v66.31c0 6.08 3.61 7.98 10.07 7.98V576s-11.78-.57-30.97-.57c-19 0-32.11.57-32.11.57v-1.71c7.41 0 10.83-5.13 10.83-13.3V501.9c0-7.41-3.23-10.07-10.07-10.07l-.76-1.52c28.88 0 53.01-9.31 53.01-9.31v17.29c9.12-3.23 13.87-17.29 28.69-17.29 10.83 0 18.05 8.17 18.05 18.24 0 10.26-6.65 20.14-19.38 20.14-4.37 0-9.88-1.71-12.35-3.8.95-1.9 2.28-5.32 2.28-8.74 0-4.94-2.47-8.74-7.98-8.74zm92.34 29.83h11.02l16.72-21.47c3.42-4.37 5.13-8.17 5.13-11.4 0-5.32-4.94-8.55-15.2-8.55v-1.71h50.16v1.71c-19 0-28.69 8.36-36.67 18.05l33.82 54.91c4.75 7.6 7.98 12.16 14.44 12.16v1.52s-10.45 6.65-26.6 6.65c-15.77 0-28.69-6.08-35.53-21.66l-10.45-23.56c-1.14-2.66-3.61-4.94-6.84-5.13v37.62c0 5.7 3.23 7.22 7.41 7.22V576s-9.12-.57-28.31-.57c-19 0-32.11.57-32.11.57v-1.71c7.41 0 10.83-5.13 10.83-13.3V454.4c0-7.41-3.23-9.69-10.07-9.69l-.76-1.71c28.88 0 53.01-9.69 53.01-9.69v94.62z" id="work"/>
    </g>
  </g>
</svg>