<?xml version="1.0" standalone="no"?>
<!DOCTYPE svg PUBLIC "-//W3C//DTD SVG 20010904//EN"
 "http://www.w3.org/TR/2001/REC-SVG-20010904/DTD/svg10.dtd">
<svg version="1.0" xmlns="http://www.w3.org/2000/svg"
 width="700.000000pt" height="700.000000pt" viewBox="0 0 700.000000 700.000000"
 preserveAspectRatio="xMidYMid meet">
<metadata>
Created by potrace 1.11, written by Peter Selinger 2001-2013
</metadata>
<g transform="translate(0.000000,700.000000) scale(0.100000,-0.100000)"
fill="#000000" stroke="none">
<path d="M477 6528 c-8 -5 -11 -848 -12 -3025 0 -1660 1 -3022 2 -3028 4 -12
6048 -13 6060 -2 4 4 7 1369 7 3032 1 3018 1 3025 -19 3026 -104 5 -6030 2
-6038 -3z m1404 -598 c18 -74 34 -139 35 -145 1 -5 12 -50 24 -100 12 -49 23
-97 25 -105 4 -17 67 -278 126 -520 23 -91 42 -172 44 -180 3 -16 17 -72 110
-455 30 -126 78 -324 106 -440 28 -115 71 -290 95 -389 24 -98 42 -182 39
-186 -3 -4 -44 -24 -92 -45 -49 -20 -116 -50 -151 -66 -35 -16 -65 -29 -67
-29 -2 0 -32 -13 -67 -29 -35 -16 -137 -61 -228 -101 -91 -40 -183 -80 -205
-90 -22 -10 -191 -84 -375 -165 -184 -81 -342 -151 -351 -156 -14 -7 -15 153
-15 1659 -1 935 3 1670 8 1673 5 3 211 6 457 5 l449 0 33 -136z m4185 -409
l-1 -544 -70 -30 c-38 -16 -103 -44 -143 -63 -41 -19 -75 -34 -78 -34 -2 0
-29 -12 -61 -26 -32 -15 -92 -41 -133 -59 -41 -18 -95 -42 -120 -53 -25 -11
-97 -43 -160 -70 -155 -67 -537 -235 -740 -325 -30 -14 -163 -72 -295 -130
-132 -58 -266 -117 -297 -131 -31 -14 -59 -26 -61 -26 -3 0 -38 -15 -79 -34
-40 -19 -122 -55 -183 -81 -60 -26 -128 -55 -150 -65 -364 -164 -730 -319
-736 -313 -4 4 -10 22 -13 38 -6 34 -6 35 -41 175 -14 58 -28 114 -30 125 -3
11 -11 47 -20 80 -8 33 -33 137 -55 230 -23 94 -59 244 -81 335 -22 91 -42
172 -44 180 -6 29 -176 728 -230 951 -31 125 -57 235 -59 245 -2 11 -11 47
-20 80 -9 34 -16 68 -16 76 0 12 269 14 1958 14 l1959 0 -1 -545z m0 -2723
l-1 -1863 -1339 0 -1340 0 -73 300 c-40 165 -75 309 -77 320 -2 11 -25 106
-51 210 -25 105 -48 199 -50 210 -4 20 -59 247 -72 295 -3 14 -7 30 -9 36 -1
7 -16 70 -34 140 -17 71 -34 140 -36 154 -3 14 -11 50 -19 80 -14 52 -110 446
-122 500 -14 63 -20 58 192 151 110 49 229 101 265 118 36 16 137 61 225 99
301 131 1208 529 1370 602 22 10 78 34 125 55 47 20 99 43 115 50 85 39 397
175 401 175 2 0 42 18 89 40 47 22 88 40 90 40 3 0 39 16 81 35 41 19 77 35
80 35 2 0 37 15 76 33 75 35 99 45 109 46 3 1 5 -837 5 -1861z m-3475 199 c16
-64 30 -127 33 -139 2 -13 24 -104 49 -203 25 -99 64 -259 87 -355 46 -192 97
-405 190 -785 34 -137 63 -257 65 -265 14 -62 67 -288 71 -301 4 -14 -99 -15
-1068 -14 -590 1 -1075 3 -1078 3 -3 1 -6 332 -6 736 l0 734 25 12 c14 7 170
75 346 152 176 77 338 148 360 158 22 10 135 59 250 110 116 50 228 100 250
110 69 32 147 66 240 106 50 21 101 44 115 51 14 7 29 12 34 10 5 -2 21 -55
37 -120z"/>
</g>
</svg>
